<svg width="797" height="52" viewBox="0 0 797 52" fill="none" xmlns="http://www.w3.org/2000/svg">
<path d="M0 0H5.29207V6.37624H0V0ZM0 12.7525H5.29207V19.1287H0V12.7525ZM0 25.505H5.29207V31.8812H0V25.505ZM0 38.2475H5.29207V44.6238H0V38.2475ZM10.5841 6.37624H15.8762V12.7525H10.5841V6.37624ZM10.5841 19.1287H15.8762V25.505H10.5841V19.1287ZM10.5841 31.8713H15.8762V38.2475H10.5841V31.8713ZM10.5841 44.6238H15.8762V51H10.5841V44.6238ZM21.1683 0H26.4604V6.37624H21.1683V0ZM21.1683 12.7525H26.4604V19.1287H21.1683V12.7525ZM21.1683 25.505H26.4604V31.8812H21.1683V25.505ZM21.1683 38.2475H26.4604V44.6238H21.1683V38.2475ZM31.7442 6.37624H37.0363V12.7525H31.7442V6.37624ZM31.7442 19.1287H37.0363V25.505H31.7442V19.1287ZM31.7442 31.8713H37.0363V38.2475H31.7442V31.8713ZM31.7442 44.6238H37.0363V51H31.7442V44.6238Z" fill="url(#paint0_linear_2_6136)"/>
<path d="M42.3283 38.2475H47.6204V31.8713H52.9125V25.495H58.2046V19.1188H63.4966V12.7426H68.7887V6.36632H74.0808V0H79.3728V6.37624H84.6649V12.7525H79.3728V6.37624H74.0808V12.7525H79.3728V19.1287H84.6649V25.505H79.3728V19.1287H74.0808V12.7525H68.7887V19.1287H74.0808V25.505H79.3728V31.8812H84.6649V38.2574H79.3728V31.8812H74.0808V25.505H68.7887V19.1287H63.4966V25.505H68.7887V31.8812H74.0808V38.2574H79.3728V44.6337H84.6649V51.0099H79.3728V44.6337H74.0808V38.2574H68.7887V31.8812H63.4966V25.505H58.2046V31.8812H63.4966V38.2574H68.7887V44.6337H74.0808V51.0099H68.7887V44.6337H63.4966V38.2574H58.2046V31.8812H52.9125V38.2574H58.2046V44.6337H63.4966V51.0099H58.2046V44.6337H52.9125V38.2574H47.6204V44.6337H52.9125V51.0099H47.6204V44.6337H42.3283V38.2475ZM42.3283 25.505H47.6204V19.1287H52.9125V12.7525H58.2046V6.37624H63.4966V0H68.7887V6.37624H63.4966V12.7525H58.2046V19.1287H52.9125V25.505H47.6204V31.8812H42.3283V25.505ZM42.3283 12.7525H47.6204V6.37624H52.9125V0H58.2046V6.37624H52.9125V12.7525H47.6204V19.1287H42.3283V12.7525ZM42.3283 0H47.6204V6.37624H42.3283V0Z" fill="url(#paint1_linear_2_6136)"/>
<path d="M84.6649 0H126.993V51H84.6649V0Z" fill="url(#paint2_linear_2_6136)"/>
<path d="M169.322 51H164.03V44.6238H158.737V51H142.861V44.6238H137.569V51H126.985V44.6238H132.277V38.2475H126.985V31.8713H132.277V25.495H126.985V19.1188H132.277V12.7426H126.985V6.36632H132.277V0H148.153V6.37624H153.445V0H169.322V51ZM142.861 12.7525V6.37624H137.569V12.7525H142.861ZM142.861 25.505V19.1287H137.569V25.505H142.861ZM142.861 38.2475V31.8713H137.569V38.2475H142.861ZM153.445 19.1287V12.7525H148.153V19.1287H153.445ZM153.445 31.8713V25.495H148.153V31.8713H153.445ZM153.445 44.6238V38.2475H148.153V44.6238H153.445ZM164.03 12.7525V6.37624H158.737V12.7525H164.03ZM164.03 25.505V19.1287H158.737V25.505H164.03ZM164.03 38.2475V31.8713H158.737V38.2475H164.03Z" fill="url(#paint3_linear_2_6136)"/>
<path d="M169.322 0H174.614V6.37624H169.322V0ZM169.322 12.7525H174.614V19.1287H169.322V12.7525ZM169.322 25.505H174.614V31.8812H169.322V25.505ZM169.322 38.2475H174.614V44.6238H169.322V38.2475ZM179.906 6.37624H185.198V12.7525H179.906V6.37624ZM179.906 19.1287H185.198V25.505H179.906V19.1287ZM179.906 31.8713H185.198V38.2475H179.906V31.8713ZM179.906 44.6238H185.198V51H179.906V44.6238ZM190.49 0H195.782V6.37624H190.49V0ZM190.49 12.7525H195.782V19.1287H190.49V12.7525ZM190.49 25.505H195.782V31.8812H190.49V25.505ZM190.49 38.2475H195.782V44.6238H190.49V38.2475ZM201.066 6.37624H206.358V12.7525H201.066V6.37624ZM201.066 19.1287H206.358V25.505H201.066V19.1287ZM201.066 31.8713H206.358V38.2475H201.066V31.8713ZM201.066 44.6238H206.358V51H201.066V44.6238Z" fill="url(#paint4_linear_2_6136)"/>
<path d="M211.65 0H216.942V6.37624H211.65V0ZM211.65 12.7525H216.942V19.1287H211.65V12.7525ZM211.65 25.505H216.942V31.8812H211.65V25.505ZM211.65 38.2475H216.942V44.6238H211.65V38.2475ZM222.234 6.37624H227.526V12.7525H222.234V6.37624ZM222.234 19.1287H227.526V25.505H222.234V19.1287ZM222.234 31.8713H227.526V38.2475H222.234V31.8713ZM222.234 44.6238H227.526V51H222.234V44.6238ZM232.818 0H238.11V6.37624H232.818V0ZM232.818 12.7525H238.11V19.1287H232.818V12.7525ZM232.818 25.505H238.11V31.8812H232.818V25.505ZM232.818 38.2475H238.11V44.6238H232.818V38.2475ZM243.402 6.37624H248.694V12.7525H243.402V6.37624ZM243.402 19.1287H248.694V25.505H243.402V19.1287ZM243.402 31.8713H248.694V38.2475H243.402V31.8713ZM243.402 44.6238H248.694V51H243.402V44.6238Z" fill="url(#paint5_linear_2_6136)"/>
<path d="M253.978 0H296.307V51H253.978V0Z" fill="url(#paint6_linear_2_6136)"/>
<path d="M316.627 38.2475H321.919V31.8713H327.211V25.495H332.503V19.1188H337.795V12.7426H343.088V6.36632H348.38V0H353.672V6.37624H358.964V12.7525H353.672V6.37624H348.38V12.7525H353.672V19.1287H358.964V25.505H353.672V19.1287H348.38V12.7525H343.088V19.1287H348.38V25.505H353.672V31.8812H358.964V38.2574H353.672V31.8812H348.38V25.505H343.088V19.1287H337.795V25.505H343.088V31.8812H348.38V38.2574H353.672V44.6337H358.964V51.0099H353.672V44.6337H348.38V38.2574H343.088V31.8812H337.795V25.505H332.503V31.8812H337.795V38.2574H343.088V44.6337H348.38V51.0099H343.088V44.6337H337.795V38.2574H332.503V31.8812H327.211V38.2574H332.503V44.6337H337.795V51.0099H332.503V44.6337H327.211V38.2574H321.919V44.6337H327.211V51.0099H321.919V44.6337H316.627V38.2475ZM316.627 25.505H321.919V19.1287H327.211V12.7525H332.503V6.37624H337.795V0H343.088V6.37624H337.795V12.7525H332.503V19.1287H327.211V25.505H321.919V31.8812H316.627V25.505ZM316.627 12.7525H321.919V6.37624H327.211V0H332.503V6.37624H327.211V12.7525H321.919V19.1287H316.627V12.7525ZM316.627 0H321.919V6.37624H316.627V0Z" fill="url(#paint7_linear_2_6136)"/>
<path d="M358.964 0H364.256V6.37624H358.964L358.964 0ZM358.964 12.7525H364.256V19.1287H358.964V12.7525ZM358.964 25.505H364.256V31.8812H358.964V25.505ZM358.964 38.2475H364.256V44.6238H358.964V38.2475ZM369.54 6.37624H374.832V12.7525H369.54V6.37624ZM369.54 19.1287H374.832V25.505H369.54V19.1287ZM369.54 31.8713H374.832V38.2475H369.54V31.8713ZM369.54 44.6238H374.832V51H369.54V44.6238ZM380.124 0H385.416V6.37624H380.124V0ZM380.124 12.7525H385.416V19.1287H380.124V12.7525ZM380.124 25.505H385.416V31.8812H380.124V25.505ZM380.124 38.2475H385.416V44.6238H380.124V38.2475ZM390.708 6.37624H396V12.7525H390.708V6.37624ZM390.708 19.1287H396V25.505H390.708V19.1287ZM390.708 31.8713H396V38.2475H390.708V31.8713ZM390.708 44.6238H396V51H390.708V44.6238Z" fill="url(#paint8_linear_2_6136)"/>
<path d="M401 0H406.292V6.37624H401V0ZM401 12.7525H406.292V19.1287H401V12.7525ZM401 25.505H406.292V31.8812H401V25.505ZM401 38.2475H406.292V44.6238H401V38.2475ZM411.584 6.37624H416.876V12.7525H411.584V6.37624ZM411.584 19.1287H416.876V25.505H411.584V19.1287ZM411.584 31.8713H416.876V38.2475H411.584V31.8713ZM411.584 44.6238H416.876V51H411.584V44.6238ZM422.168 0H427.46V6.37624H422.168V0ZM422.168 12.7525H427.46V19.1287H422.168V12.7525ZM422.168 25.505H427.46V31.8812H422.168V25.505ZM422.168 38.2475H427.46V44.6238H422.168V38.2475ZM432.744 6.37624H438.036V12.7525H432.744V6.37624ZM432.744 19.1287H438.036V25.505H432.744V19.1287ZM432.744 31.8713H438.036V38.2475H432.744V31.8713ZM432.744 44.6238H438.036V51H432.744V44.6238Z" fill="url(#paint9_linear_2_6136)"/>
<path d="M443.328 38.2475H448.62V31.8713H453.912V25.495H459.205V19.1188H464.497V12.7426H469.789V6.36632H475.081V0H480.373V6.37624H485.665V12.7525H480.373V6.37624H475.081V12.7525H480.373V19.1287H485.665V25.505H480.373V19.1287H475.081V12.7525H469.789V19.1287H475.081V25.505H480.373V31.8812H485.665V38.2574H480.373V31.8812H475.081V25.505H469.789V19.1287H464.497V25.505H469.789V31.8812H475.081V38.2574H480.373V44.6337H485.665V51.0099H480.373V44.6337H475.081V38.2574H469.789V31.8812H464.497V25.505H459.205V31.8812H464.497V38.2574H469.789V44.6337H475.081V51.0099H469.789V44.6337H464.497V38.2574H459.205V31.8812H453.912V38.2574H459.205V44.6337H464.497V51.0099H459.205V44.6337H453.912V38.2574H448.62V44.6337H453.912V51.0099H448.62V44.6337H443.328V38.2475ZM443.328 25.505H448.62V19.1287H453.912V12.7525H459.205V6.37624H464.497V0H469.789V6.37624H464.497V12.7525H459.205V19.1287H453.912V25.505H448.62V31.8812H443.328V25.505ZM443.328 12.7525H448.62V6.37624H453.912V0H459.205V6.37624H453.912V12.7525H448.62V19.1287H443.328V12.7525ZM443.328 0H448.62V6.37624H443.328V0Z" fill="url(#paint10_linear_2_6136)"/>
<path d="M485.665 0H527.993V51H485.665V0Z" fill="url(#paint11_linear_2_6136)"/>
<path d="M570.322 51H565.03V44.6238H559.737V51H543.861V44.6238H538.569V51H527.985V44.6238H533.277V38.2475H527.985V31.8713H533.277V25.495H527.985V19.1188H533.277V12.7426H527.985V6.36632H533.277V0H549.153V6.37624H554.445V0H570.322V51ZM543.861 12.7525V6.37624H538.569V12.7525H543.861ZM543.861 25.505V19.1287H538.569V25.505H543.861ZM543.861 38.2475V31.8713H538.569V38.2475H543.861ZM554.445 19.1287V12.7525H549.153V19.1287H554.445ZM554.445 31.8713V25.495H549.153V31.8713H554.445ZM554.445 44.6238V38.2475H549.153V44.6238H554.445ZM565.03 12.7525V6.37624H559.737V12.7525H565.03ZM565.03 25.505V19.1287H559.737V25.505H565.03ZM565.03 38.2475V31.8713H559.737V38.2475H565.03Z" fill="url(#paint12_linear_2_6136)"/>
<path d="M570.322 0H575.614V6.37624H570.322V0ZM570.322 12.7525H575.614V19.1287H570.322V12.7525ZM570.322 25.505H575.614V31.8812H570.322V25.505ZM570.322 38.2475H575.614V44.6238H570.322V38.2475ZM580.906 6.37624H586.198V12.7525H580.906V6.37624ZM580.906 19.1287H586.198V25.505H580.906V19.1287ZM580.906 31.8713H586.198V38.2475H580.906V31.8713ZM580.906 44.6238H586.198V51H580.906V44.6238ZM591.49 0H596.782V6.37624H591.49V0ZM591.49 12.7525H596.782V19.1287H591.49V12.7525ZM591.49 25.505H596.782V31.8812H591.49V25.505ZM591.49 38.2475H596.782V44.6238H591.49V38.2475ZM602.066 6.37624H607.358V12.7525H602.066V6.37624ZM602.066 19.1287H607.358V25.505H602.066V19.1287ZM602.066 31.8713H607.358V38.2475H602.066V31.8713ZM602.066 44.6238H607.358V51H602.066V44.6238Z" fill="url(#paint13_linear_2_6136)"/>
<path d="M612.65 0H617.942V6.37624H612.65V0ZM612.65 12.7525H617.942V19.1287H612.65V12.7525ZM612.65 25.505H617.942V31.8812H612.65V25.505ZM612.65 38.2475H617.942V44.6238H612.65V38.2475ZM623.234 6.37624H628.526V12.7525H623.234V6.37624ZM623.234 19.1287H628.526V25.505H623.234V19.1287ZM623.234 31.8713H628.526V38.2475H623.234V31.8713ZM623.234 44.6238H628.526V51H623.234V44.6238ZM633.818 0H639.11V6.37624H633.818V0ZM633.818 12.7525H639.11V19.1287H633.818V12.7525ZM633.818 25.505H639.11V31.8812H633.818V25.505ZM633.818 38.2475H639.11V44.6238H633.818V38.2475ZM644.402 6.37624H649.694V12.7525H644.402V6.37624ZM644.402 19.1287H649.694V25.505H644.402V19.1287ZM644.402 31.8713H649.694V38.2475H644.402V31.8713ZM644.402 44.6238H649.694V51H644.402V44.6238Z" fill="url(#paint14_linear_2_6136)"/>
<path d="M654.978 0H697.307V51H654.978V0Z" fill="url(#paint15_linear_2_6136)"/>
<path d="M717.627 38.2475H722.919V31.8713H728.211V25.495H733.503V19.1188H738.795V12.7426H744.088V6.36632H749.38V0H754.672V6.37624H759.964V12.7525H754.672V6.37624H749.38V12.7525H754.672V19.1287H759.964V25.505H754.672V19.1287H749.38V12.7525H744.088V19.1287H749.38V25.505H754.672V31.8812H759.964V38.2574H754.672V31.8812H749.38V25.505H744.088V19.1287H738.795V25.505H744.088V31.8812H749.38V38.2574H754.672V44.6337H759.964V51.0099H754.672V44.6337H749.38V38.2574H744.088V31.8812H738.795V25.505H733.503V31.8812H738.795V38.2574H744.088V44.6337H749.38V51.0099H744.088V44.6337H738.795V38.2574H733.503V31.8812H728.211V38.2574H733.503V44.6337H738.795V51.0099H733.503V44.6337H728.211V38.2574H722.919V44.6337H728.211V51.0099H722.919V44.6337H717.627V38.2475ZM717.627 25.505H722.919V19.1287H728.211V12.7525H733.503V6.37624H738.795V0H744.088V6.37624H738.795V12.7525H733.503V19.1287H728.211V25.505H722.919V31.8812H717.627V25.505ZM717.627 12.7525H722.919V6.37624H728.211V0H733.503V6.37624H728.211V12.7525H722.919V19.1287H717.627V12.7525ZM717.627 0H722.919V6.37624H717.627V0Z" fill="url(#paint16_linear_2_6136)"/>
<path d="M759.964 0H765.256V6.37624H759.964V0ZM759.964 12.7525H765.256V19.1287H759.964V12.7525ZM759.964 25.505H765.256V31.8812H759.964V25.505ZM759.964 38.2475H765.256V44.6238H759.964V38.2475ZM770.54 6.37624H775.832V12.7525H770.54V6.37624ZM770.54 19.1287H775.832V25.505H770.54V19.1287ZM770.54 31.8713H775.832V38.2475H770.54V31.8713ZM770.54 44.6238H775.832V51H770.54V44.6238ZM781.124 0H786.416V6.37624H781.124V0ZM781.124 12.7525H786.416V19.1287H781.124V12.7525ZM781.124 25.505H786.416V31.8812H781.124V25.505ZM781.124 38.2475H786.416V44.6238H781.124V38.2475ZM791.708 6.37624H797V12.7525H791.708V6.37624ZM791.708 19.1287H797V25.505H791.708V19.1287ZM791.708 31.8713H797V38.2475H791.708V31.8713ZM791.708 44.6238H797V51H791.708V44.6238Z" fill="url(#paint17_linear_2_6136)"/>
<defs>
<linearGradient id="paint0_linear_2_6136" x1="0" y1="25.505" x2="797" y2="25.505" gradientUnits="userSpaceOnUse">
<stop offset="0.225962" stop-color="#0F0F0F"/>
<stop offset="1" stop-color="#666666"/>
</linearGradient>
<linearGradient id="paint1_linear_2_6136" x1="0" y1="25.505" x2="797" y2="25.505" gradientUnits="userSpaceOnUse">
<stop offset="0.225962" stop-color="#0F0F0F"/>
<stop offset="1" stop-color="#666666"/>
</linearGradient>
<linearGradient id="paint2_linear_2_6136" x1="0" y1="25.505" x2="797" y2="25.505" gradientUnits="userSpaceOnUse">
<stop offset="0.225962" stop-color="#0F0F0F"/>
<stop offset="1" stop-color="#666666"/>
</linearGradient>
<linearGradient id="paint3_linear_2_6136" x1="0" y1="25.505" x2="797" y2="25.505" gradientUnits="userSpaceOnUse">
<stop offset="0.225962" stop-color="#0F0F0F"/>
<stop offset="1" stop-color="#666666"/>
</linearGradient>
<linearGradient id="paint4_linear_2_6136" x1="0" y1="25.505" x2="797" y2="25.505" gradientUnits="userSpaceOnUse">
<stop offset="0.225962" stop-color="#0F0F0F"/>
<stop offset="1" stop-color="#666666"/>
</linearGradient>
<linearGradient id="paint5_linear_2_6136" x1="0" y1="25.505" x2="797" y2="25.505" gradientUnits="userSpaceOnUse">
<stop offset="0.225962" stop-color="#0F0F0F"/>
<stop offset="1" stop-color="#666666"/>
</linearGradient>
<linearGradient id="paint6_linear_2_6136" x1="0" y1="25.505" x2="797" y2="25.505" gradientUnits="userSpaceOnUse">
<stop offset="0.225962" stop-color="#0F0F0F"/>
<stop offset="1" stop-color="#666666"/>
</linearGradient>
<linearGradient id="paint7_linear_2_6136" x1="0" y1="25.505" x2="797" y2="25.505" gradientUnits="userSpaceOnUse">
<stop offset="0.225962" stop-color="#0F0F0F"/>
<stop offset="1" stop-color="#666666"/>
</linearGradient>
<linearGradient id="paint8_linear_2_6136" x1="0" y1="25.505" x2="797" y2="25.505" gradientUnits="userSpaceOnUse">
<stop offset="0.225962" stop-color="#0F0F0F"/>
<stop offset="1" stop-color="#666666"/>
</linearGradient>
<linearGradient id="paint9_linear_2_6136" x1="0" y1="25.505" x2="797" y2="25.505" gradientUnits="userSpaceOnUse">
<stop offset="0.225962" stop-color="#0F0F0F"/>
<stop offset="1" stop-color="#666666"/>
</linearGradient>
<linearGradient id="paint10_linear_2_6136" x1="0" y1="25.505" x2="797" y2="25.505" gradientUnits="userSpaceOnUse">
<stop offset="0.225962" stop-color="#0F0F0F"/>
<stop offset="1" stop-color="#666666"/>
</linearGradient>
<linearGradient id="paint11_linear_2_6136" x1="0" y1="25.505" x2="797" y2="25.505" gradientUnits="userSpaceOnUse">
<stop offset="0.225962" stop-color="#0F0F0F"/>
<stop offset="1" stop-color="#666666"/>
</linearGradient>
<linearGradient id="paint12_linear_2_6136" x1="0" y1="25.505" x2="797" y2="25.505" gradientUnits="userSpaceOnUse">
<stop offset="0.225962" stop-color="#0F0F0F"/>
<stop offset="1" stop-color="#666666"/>
</linearGradient>
<linearGradient id="paint13_linear_2_6136" x1="0" y1="25.505" x2="797" y2="25.505" gradientUnits="userSpaceOnUse">
<stop offset="0.225962" stop-color="#0F0F0F"/>
<stop offset="1" stop-color="#666666"/>
</linearGradient>
<linearGradient id="paint14_linear_2_6136" x1="0" y1="25.505" x2="797" y2="25.505" gradientUnits="userSpaceOnUse">
<stop offset="0.225962" stop-color="#0F0F0F"/>
<stop offset="1" stop-color="#666666"/>
</linearGradient>
<linearGradient id="paint15_linear_2_6136" x1="0" y1="25.505" x2="797" y2="25.505" gradientUnits="userSpaceOnUse">
<stop offset="0.225962" stop-color="#0F0F0F"/>
<stop offset="1" stop-color="#666666"/>
</linearGradient>
<linearGradient id="paint16_linear_2_6136" x1="0" y1="25.505" x2="797" y2="25.505" gradientUnits="userSpaceOnUse">
<stop offset="0.225962" stop-color="#0F0F0F"/>
<stop offset="1" stop-color="#666666"/>
</linearGradient>
<linearGradient id="paint17_linear_2_6136" x1="0" y1="25.505" x2="797" y2="25.505" gradientUnits="userSpaceOnUse">
<stop offset="0.225962" stop-color="#0F0F0F"/>
<stop offset="1" stop-color="#666666"/>
</linearGradient>
</defs>
</svg>
