<svg width="34" height="32" viewBox="0 0 34 32" fill="none" xmlns="http://www.w3.org/2000/svg">
<path d="M30.777 11.7325C32.557 8.60245 31.3032 4.70735 27.9766 3.03255C24.65 1.35775 20.5102 2.53746 18.7303 5.66751C16.9503 8.79755 18.2041 12.6927 21.5307 14.3675C24.8573 16.0423 28.997 14.8625 30.777 11.7325Z" fill="white"/>
<path d="M7.66663 31.6009C11.4322 31.3805 14.295 28.3295 14.0607 24.7864C13.8264 21.2433 10.5839 18.5498 6.81825 18.7702C3.05263 18.9906 0.189916 22.0416 0.424189 25.5847C0.658462 29.1278 3.90101 31.8213 7.66663 31.6009Z" fill="white"/>
<path d="M24.7583 18.7559C14.1073 18.6095 14.0741 8.70303 14.0741 8.70303C14.0741 5.15197 11.015 2.27527 7.24268 2.27527C3.47037 2.27527 0.411255 5.15361 0.411255 8.70303C0.411255 12.2524 3.47037 15.1308 7.24268 15.1308C17.5283 16.042 17.9268 25.1836 17.9268 25.1836C17.9268 28.7347 20.986 31.6114 24.7583 31.6114C28.5306 31.6114 31.5897 28.733 31.5897 25.1836C31.5897 21.6342 28.5306 18.7559 24.7583 18.7559Z" fill="white"/>
</svg>
