<svg width="322" height="164" viewBox="0 0 322 164" fill="none" xmlns="http://www.w3.org/2000/svg">
<g clip-path="url(#clip0_2_6137)">
<path d="M161.008 164C115.75 164 78.9351 127.218 78.9351 82C78.9351 36.782 115.75 0 161.008 0C206.266 0 243.081 36.782 243.081 82C243.081 127.218 206.266 164 161.008 164ZM161.008 4.57351C118.273 4.57351 83.5126 39.3031 83.5126 82C83.5126 124.697 118.273 159.426 161.008 159.426C203.743 159.426 238.504 124.697 238.504 82C238.504 39.3031 203.743 4.57351 161.008 4.57351Z" fill="white"/>
<path d="M161.008 164C115.75 164 78.9351 127.218 78.9351 82C78.9351 36.782 115.75 0 161.008 0C206.266 0 243.081 36.782 243.081 82C243.081 127.218 206.266 164 161.008 164ZM161.008 4.57351C118.273 4.57351 83.5126 39.3031 83.5126 82C83.5126 124.697 118.273 159.426 161.008 159.426C203.743 159.426 238.504 124.697 238.504 82C238.504 39.3031 203.743 4.57351 161.008 4.57351Z" fill="white"/>
<path d="M161.008 164C118.257 164 78.0454 155.629 47.7492 140.405C16.9516 124.939 0 104.205 0 82C0 59.795 16.9516 39.0607 47.7492 23.5948C78.0292 8.37131 118.257 0 161.008 0C203.759 0 243.971 8.37131 274.267 23.5948C305.048 39.0607 322.016 59.795 322.016 82C322.016 104.205 305.065 124.939 274.267 140.405C243.971 155.613 203.759 164 161.008 164ZM161.008 4.57351C74.7457 4.57351 4.57759 39.3031 4.57759 82C4.57759 124.697 74.7457 159.426 161.008 159.426C247.271 159.426 317.439 124.697 317.439 82C317.439 39.3031 247.254 4.57351 161.008 4.57351Z" fill="white"/>
<path d="M161.008 164C93.7354 164 39.0146 127.218 39.0146 82C39.0146 36.782 93.7354 0 161.008 0C228.281 0 283.002 36.782 283.002 82C283.002 127.218 228.281 164 161.008 164ZM161.008 4.57351C96.2587 4.57351 43.5761 39.3031 43.5761 82C43.5761 124.697 96.2587 159.426 160.992 159.426C225.725 159.426 278.408 124.697 278.408 82C278.408 39.3031 225.741 4.57351 161.008 4.57351Z" fill="white"/>
<path d="M319.719 79.7213H2.2807V84.2948H319.719V79.7213Z" fill="white"/>
</g>
<defs>
<clipPath id="clip0_2_6137">
<rect width="322" height="164" fill="white"/>
</clipPath>
</defs>
</svg>
