<svg width="35" height="30" viewBox="0 0 35 30" fill="none" xmlns="http://www.w3.org/2000/svg">
<g clip-path="url(#clip0_2_6144)">
<path d="M14.6024 25.233L15.8234 20.8581C16.618 18.0109 16.1465 15.7002 14.7693 15.7002H12.9523C11.575 15.7002 9.81101 18.0109 9.01641 20.8581L7.79539 25.233C7.0008 28.0802 5.23681 30.3909 3.85952 30.3909H1.44131C0.0640176 30.3909 -0.410089 28.0802 0.387151 25.233L1.78298 20.2394C2.57757 17.3921 4.34157 15.0815 5.71886 15.0815H7.83512C9.21241 15.0815 10.9764 12.7709 11.771 9.92363L12.9947 5.54874C13.7893 2.70151 15.5533 0.390869 16.9305 0.390869H19.3461C20.7234 0.390869 21.1975 2.70151 20.4003 5.54874L19.1766 9.92363C18.382 12.7709 18.8535 15.0815 20.2307 15.0815H22.0477C23.425 15.0815 25.189 12.7709 25.9836 9.92363L27.2073 5.54874C28.0019 2.70151 29.7658 0.390869 31.1431 0.390869H33.5587C34.936 0.390869 35.4101 2.70151 34.6128 5.54874L33.217 10.5424C32.4224 13.3896 30.6584 15.7002 29.2811 15.7002H27.1649C25.7876 15.7002 24.0236 18.0109 23.229 20.8581L22.008 25.233C21.2134 28.0802 19.4494 30.3909 18.0721 30.3909H15.6565C14.2793 30.3909 13.8052 28.0802 14.6024 25.233Z" fill="white"/>
</g>
<defs>
<clipPath id="clip0_2_6144">
<rect width="35" height="30" fill="white"/>
</clipPath>
</defs>
</svg>
