<svg preserveAspectRatio="none" width="100%" height="100%" overflow="visible" style="display: block;" viewBox="0 0 40 20" fill="none" xmlns="http://www.w3.org/2000/svg">
<g id="Group">
<path id="Vector" d="M8.45433 19.8843C16.4871 13.0065 16.5273 10.0008 0 10.0008C16.5273 10.0008 23.5129 6.99348 31.5457 0.117391C23.5129 6.99348 23.4694 10.0008 40 10.0008C23.4727 10.0008 16.4871 13.0082 8.45433 19.8843Z" fill="var(--fill-0, white)"/>
<path id="Vector_2" d="M8.8625 20L8.04282 19.7669C12.817 15.6799 14.1853 13.3636 12.6163 12.0195C11.191 10.801 7.183 10.2339 0 10.2339V9.76606C16.7748 9.76606 23.4058 6.61652 31.1375 0L31.9572 0.233116C27.183 4.32008 25.8147 6.63636 27.3837 7.98049C28.8056 9.19897 32.8137 9.76606 40 9.76606V10.2339C23.2252 10.2339 16.5942 13.3835 8.8625 20ZM6.9555 10.024C10.3045 10.3282 12.4088 10.9068 13.4326 11.7847C14.5801 12.7668 14.443 14.101 12.8605 16.0734C15.4667 14.3358 17.996 13.0975 20.7762 12.1683C24.2355 11.011 28.1633 10.3001 33.0445 9.97437C29.6956 9.67017 27.5912 9.09151 26.5674 8.21361C25.4199 7.23155 25.557 5.89733 27.1395 3.92494C24.5333 5.66256 22.004 6.90088 19.2238 7.83004C15.7645 8.98735 11.8367 9.69827 6.9555 10.024Z" fill="var(--fill-0, white)"/>
</g>
</svg>
