<svg preserveAspectRatio="none" width="100%" height="100%" overflow="visible" style="display: block;" viewBox="0 0 40 20" fill="none" xmlns="http://www.w3.org/2000/svg">
<g id="Group">
<path id="Vector" d="M8.45363 19.8843C16.4857 13.0082 16.5292 10.0008 0 10.0008C16.5259 10.0008 23.5109 6.99348 31.543 0.117391C23.5109 6.99348 23.4674 10.0008 39.9967 10.0008C23.4708 10.0008 16.4857 13.0082 8.45363 19.8843Z" fill="var(--fill-0, white)"/>
<path id="Vector_2" d="M8.8651 20L8.0455 19.7669C12.8193 15.6799 14.1875 13.3636 12.6152 12.0195C11.1934 10.801 7.18575 10.2339 0 10.2339V9.76606C16.7734 9.76606 23.4039 6.61652 31.1349 0L31.9545 0.233116C27.1807 4.32008 25.8125 6.63636 27.3848 7.98049C28.8066 9.19897 32.8142 9.76606 40 9.76606V10.2339C23.2266 10.2339 16.5961 13.3835 8.8651 20ZM6.95827 10.024C10.3069 10.3282 12.4111 10.9068 13.4348 11.7847C14.5823 12.7668 14.4451 14.101 12.8628 16.0734C15.4688 14.3358 17.9978 13.0975 20.7744 12.1683C24.2335 11.011 28.1609 10.3001 33.0417 9.97437C29.6931 9.67017 27.5889 9.09151 26.5652 8.21361C25.4177 7.23155 25.5549 5.89733 27.1372 3.92494C24.5312 5.66256 22.0022 6.90088 19.2256 7.83004C15.7665 8.98735 11.8391 9.69827 6.95827 10.024Z" fill="var(--fill-0, white)"/>
</g>
</svg>
