<svg preserveAspectRatio="none" width="100%" height="100%" overflow="visible" style="display: block;" viewBox="0 0 40 20" fill="none" xmlns="http://www.w3.org/2000/svg">
<g id="Group">
<path id="Vector" d="M8.45292 19.8843C16.4844 13.0082 16.5278 10.0008 0 10.0008C16.5245 10.0008 23.5089 6.99348 31.5404 0.117391C23.5089 6.99348 23.4655 10.0008 39.9933 10.0008C23.4688 10.0008 16.4844 13.0082 8.45292 19.8843Z" fill="var(--fill-0, white)"/>
<path id="Vector_2" d="M8.86418 20L8.04465 19.7669C12.818 15.6799 14.1861 13.3636 12.6173 12.0195C11.1957 10.801 7.18832 10.2339 0.00317383 10.2339V9.76606C16.7752 9.76606 23.4051 6.61652 31.1355 0L31.955 0.233116C27.1816 4.32008 25.8135 6.63636 27.3857 7.98049C28.8073 9.19897 32.8147 9.76606 39.9998 9.76606V10.2339C23.2278 10.2339 16.5979 13.3835 8.86753 20H8.86418ZM6.95752 10.024C10.3059 10.3282 12.4099 10.9068 13.4335 11.7847C14.5809 12.7668 14.4437 14.101 12.8615 16.0734C15.4673 14.3358 17.9961 13.0975 20.7759 12.1683C24.2347 11.011 28.1617 10.3001 33.0421 9.97437C29.6938 9.67017 27.5897 9.09151 26.5661 8.21361C25.4188 7.23155 25.5559 5.89733 27.1381 3.92494C24.5324 5.66256 22.0035 6.90088 19.2271 7.83004C15.765 8.98735 11.8413 9.69827 6.96086 10.024H6.95752Z" fill="var(--fill-0, white)"/>
</g>
</svg>
