<svg width="1280" height="78" viewBox="0 0 1280 78" fill="none" xmlns="http://www.w3.org/2000/svg">
<path d="M0 0H8.49919V9.75H0V0ZM0 19.5H8.49919V29.25H0V19.5ZM0 39H8.49919V48.75H0V39ZM0 58.4848H8.49919V68.2348H0V58.4848ZM16.9984 9.75H25.4976V19.5H16.9984V9.75ZM16.9984 29.25H25.4976V39H16.9984V29.25ZM16.9984 48.7348H25.4976V58.4848H16.9984V48.7348ZM16.9984 68.2348H25.4976V77.9848H16.9984V68.2348ZM33.9967 0H42.4959V9.75H33.9967V0ZM33.9967 19.5H42.4959V29.25H33.9967V19.5ZM33.9967 39H42.4959V48.75H33.9967V39ZM33.9967 58.4848H42.4959V68.2348H33.9967V58.4848ZM50.9819 9.75H59.4811V19.5H50.9819V9.75ZM50.9819 29.25H59.4811V39H50.9819V29.25ZM50.9819 48.7348H59.4811V58.4848H50.9819V48.7348ZM50.9819 68.2348H59.4811V77.9848H50.9819V68.2348Z" fill="url(#paint0_linear_2_6136)"/>
<path d="M67.9803 58.4848H76.4795V48.7348H84.9786V38.9848H93.4778V29.2348H101.977V19.4848H110.476V9.73484H118.975V0H127.475V9.75H135.974V19.5H127.475V9.75H118.975V19.5H127.475V29.25H135.974V39H127.475V29.25H118.975V19.5H110.476V29.25H118.975V39H127.475V48.75H135.974V58.5H127.475V48.75H118.975V39H110.476V29.25H101.977V39H110.476V48.75H118.975V58.5H127.475V68.25H135.974V78H127.475V68.25H118.975V58.5H110.476V48.75H101.977V39H93.4778V48.75H101.977V58.5H110.476V68.25H118.975V78H110.476V68.25H101.977V58.5H93.4778V48.75H84.9786V58.5H93.4778V68.25H101.977V78H93.4778V68.25H84.9786V58.5H76.4795V68.25H84.9786V78H76.4795V68.25H67.9803V58.4848ZM67.9803 39H76.4795V29.25H84.9786V19.5H93.4778V9.75H101.977V0H110.476V9.75H101.977V19.5H93.4778V29.25H84.9786V39H76.4795V48.75H67.9803V39ZM67.9803 19.5H76.4795V9.75H84.9786V0H93.4778V9.75H84.9786V19.5H76.4795V29.25H67.9803V19.5ZM67.9803 0H76.4795V9.75H67.9803V0Z" fill="url(#paint1_linear_2_6136)"/>
<path d="M135.974 0H203.954V77.9848H135.974V0Z" fill="url(#paint2_linear_2_6136)"/>
<path d="M271.934 77.9848H263.435V68.2348H254.936V77.9848H229.438V68.2348H220.939V77.9848H203.941V68.2348H212.44V58.4848H203.941V48.7348H212.44V38.9848H203.941V29.2348H212.44V19.4848H203.941V9.73484H212.44V0H237.938V9.75H246.437V0H271.934V77.9848ZM229.438 19.5V9.75H220.939V19.5H229.438ZM229.438 39V29.25H220.939V39H229.438ZM229.438 58.4848V48.7348H220.939V58.4848H229.438ZM246.437 29.25V19.5H237.938V29.25H246.437ZM246.437 48.7348V38.9848H237.938V48.7348H246.437ZM246.437 68.2348V58.4848H237.938V68.2348H246.437ZM263.435 19.5V9.75H254.936V19.5H263.435ZM263.435 39V29.25H254.936V39H263.435ZM263.435 58.4848V48.7348H254.936V58.4848H263.435Z" fill="url(#paint3_linear_2_6136)"/>
<path d="M271.934 0H280.434V9.75H271.934V0ZM271.934 19.5H280.434V29.25H271.934V19.5ZM271.934 39H280.434V48.75H271.934V39ZM271.934 58.4848H280.434V68.2348H271.934V58.4848ZM288.933 9.75H297.432V19.5H288.933V9.75ZM288.933 29.25H297.432V39H288.933V29.25ZM288.933 48.7348H297.432V58.4848H288.933V48.7348ZM288.933 68.2348H297.432V77.9848H288.933V68.2348ZM305.931 0H314.43V9.75H305.931V0ZM305.931 19.5H314.43V29.25H305.931V19.5ZM305.931 39H314.43V48.75H305.931V39ZM305.931 58.4848H314.43V68.2348H305.931V58.4848ZM322.916 9.75H331.415V19.5H322.916V9.75ZM322.916 29.25H331.415V39H322.916V29.25ZM322.916 48.7348H331.415V58.4848H322.916V48.7348ZM322.916 68.2348H331.415V77.9848H322.916V68.2348Z" fill="url(#paint4_linear_2_6136)"/>
<path d="M339.915 0H348.414V9.75H339.915V0ZM339.915 19.5H348.414V29.25H339.915V19.5ZM339.915 39H348.414V48.75H339.915V39ZM339.915 58.4848H348.414V68.2348H339.915V58.4848ZM356.913 9.75H365.412V19.5H356.913V9.75ZM356.913 29.25H365.412V39H356.913V29.25ZM356.913 48.7348H365.412V58.4848H356.913V48.7348ZM356.913 68.2348H365.412V77.9848H356.913V68.2348ZM373.911 0H382.41V9.75H373.911V0ZM373.911 19.5H382.41V29.25H373.911V19.5ZM373.911 39H382.41V48.75H373.911V39ZM373.911 58.4848H382.41V68.2348H373.911V58.4848ZM390.91 9.75H399.409V19.5H390.91V9.75ZM390.91 29.25H399.409V39H390.91V29.25ZM390.91 48.7348H399.409V58.4848H390.91V48.7348ZM390.91 68.2348H399.409V77.9848H390.91V68.2348Z" fill="url(#paint5_linear_2_6136)"/>
<path d="M407.895 0H475.875V77.9848H407.895V0Z" fill="url(#paint6_linear_2_6136)"/>
<path d="M508.51 58.4848H517.01V48.7348H525.509V38.9848H534.008V29.2348H542.507V19.4848H551.006V9.73484H559.505V0H568.005V9.75H576.504V19.5H568.005V9.75H559.505V19.5H568.005V29.25H576.504V39H568.005V29.25H559.505V19.5H551.006V29.25H559.505V39H568.005V48.75H576.504V58.5H568.005V48.75H559.505V39H551.006V29.25H542.507V39H551.006V48.75H559.505V58.5H568.005V68.25H576.504V78H568.005V68.25H559.505V58.5H551.006V48.75H542.507V39H534.008V48.75H542.507V58.5H551.006V68.25H559.505V78H551.006V68.25H542.507V58.5H534.008V48.75H525.509V58.5H534.008V68.25H542.507V78H534.008V68.25H525.509V58.5H517.01V68.25H525.509V78H517.01V68.25H508.51V58.4848ZM508.51 39H517.01V29.25H525.509V19.5H534.008V9.75H542.507V0H551.006V9.75H542.507V19.5H534.008V29.25H525.509V39H517.01V48.75H508.51V39ZM508.51 19.5H517.01V9.75H525.509V0H534.008V9.75H525.509V19.5H517.01V29.25H508.51V19.5ZM508.51 0H517.01V9.75H508.51V0Z" fill="url(#paint7_linear_2_6136)"/>
<path d="M576.504 0H585.003V9.75H576.504L576.504 0ZM576.504 19.5H585.003V29.25H576.504V19.5ZM576.504 39H585.003V48.75H576.504V39ZM576.504 58.4848H585.003V68.2348H576.504V58.4848ZM593.489 9.75H601.988V19.5H593.489V9.75ZM593.489 29.25H601.988V39H593.489V29.25ZM593.489 48.7348H601.988V58.4848H593.489V48.7348ZM593.489 68.2348H601.988V77.9848H593.489V68.2348ZM610.487 0H618.987V9.75H610.487V0ZM610.487 19.5H618.987V29.25H610.487V19.5ZM610.487 39H618.987V48.75H610.487V39ZM610.487 58.4848H618.987V68.2348H610.487V58.4848ZM627.486 9.75H635.985V19.5H627.486V9.75ZM627.486 29.25H635.985V39H627.486V29.25ZM627.486 48.7348H635.985V58.4848H627.486V48.7348ZM627.486 68.2348H635.985V77.9848H627.486V68.2348Z" fill="url(#paint8_linear_2_6136)"/>
<path d="M644.015 0H652.514V9.75H644.015V0ZM644.015 19.5H652.514V29.25H644.015V19.5ZM644.015 39H652.514V48.75H644.015V39ZM644.015 58.4848H652.514V68.2348H644.015V58.4848ZM661.013 9.75H669.513V19.5H661.013V9.75ZM661.013 29.25H669.513V39H661.013V29.25ZM661.013 48.7348H669.513V58.4848H661.013V48.7348ZM661.013 68.2348H669.513V77.9848H661.013V68.2348ZM678.012 0H686.511V9.75H678.012V0ZM678.012 19.5H686.511V29.25H678.012V19.5ZM678.012 39H686.511V48.75H678.012V39ZM678.012 58.4848H686.511V68.2348H678.012V58.4848ZM694.997 9.75H703.496V19.5H694.997V9.75ZM694.997 29.25H703.496V39H694.997V29.25ZM694.997 48.7348H703.496V58.4848H694.997V48.7348ZM694.997 68.2348H703.496V77.9848H694.997V68.2348Z" fill="url(#paint9_linear_2_6136)"/>
<path d="M711.995 58.4848H720.495V48.7348H728.994V38.9848H737.493V29.2348H745.992V19.4848H754.491V9.73484H762.99V0H771.49V9.75H779.989V19.5H771.49V9.75H762.99V19.5H771.49V29.25H779.989V39H771.49V29.25H762.99V19.5H754.491V29.25H762.99V39H771.49V48.75H779.989V58.5H771.49V48.75H762.99V39H754.491V29.25H745.992V39H754.491V48.75H762.99V58.5H771.49V68.25H779.989V78H771.49V68.25H762.99V58.5H754.491V48.75H745.992V39H737.493V48.75H745.992V58.5H754.491V68.25H762.99V78H754.491V68.25H745.992V58.5H737.493V48.75H728.994V58.5H737.493V68.25H745.992V78H737.493V68.25H728.994V58.5H720.495V68.25H728.994V78H720.495V68.25H711.995V58.4848ZM711.995 39H720.495V29.25H728.994V19.5H737.493V9.75H745.992V0H754.491V9.75H745.992V19.5H737.493V29.25H728.994V39H720.495V48.75H711.995V39ZM711.995 19.5H720.495V9.75H728.994V0H737.493V9.75H728.994V19.5H720.495V29.25H711.995V19.5ZM711.995 0H720.495V9.75H711.995V0Z" fill="url(#paint10_linear_2_6136)"/>
<path d="M779.989 0H847.969V77.9848H779.989V0Z" fill="url(#paint11_linear_2_6136)"/>
<path d="M915.949 77.9848H907.45V68.2348H898.951V77.9848H873.453V68.2348H864.954V77.9848H847.956V68.2348H856.455V58.4848H847.956V48.7348H856.455V38.9848H847.956V29.2348H856.455V19.4848H847.956V9.73484H856.455V0H881.953V9.75H890.452V0H915.949V77.9848ZM873.453 19.5V9.75H864.954V19.5H873.453ZM873.453 39V29.25H864.954V39H873.453ZM873.453 58.4848V48.7348H864.954V58.4848H873.453ZM890.452 29.25V19.5H881.953V29.25H890.452ZM890.452 48.7348V38.9848H881.953V48.7348H890.452ZM890.452 68.2348V58.4848H881.953V68.2348H890.452ZM907.45 19.5V9.75H898.951V19.5H907.45ZM907.45 39V29.25H898.951V39H907.45ZM907.45 58.4848V48.7348H898.951V58.4848H907.45Z" fill="url(#paint12_linear_2_6136)"/>
<path d="M915.949 0H924.449V9.75H915.949V0ZM915.949 19.5H924.449V29.25H915.949V19.5ZM915.949 39H924.449V48.75H915.949V39ZM915.949 58.4848H924.449V68.2348H915.949V58.4848ZM932.948 9.75H941.447V19.5H932.948V9.75ZM932.948 29.25H941.447V39H932.948V29.25ZM932.948 48.7348H941.447V58.4848H932.948V48.7348ZM932.948 68.2348H941.447V77.9848H932.948V68.2348ZM949.946 0H958.445V9.75H949.946V0ZM949.946 19.5H958.445V29.25H949.946V19.5ZM949.946 39H958.445V48.75H949.946V39ZM949.946 58.4848H958.445V68.2348H949.946V58.4848ZM966.931 9.75H975.43V19.5H966.931V9.75ZM966.931 29.25H975.43V39H966.931V29.25ZM966.931 48.7348H975.43V58.4848H966.931V48.7348ZM966.931 68.2348H975.43V77.9848H966.931V68.2348Z" fill="url(#paint13_linear_2_6136)"/>
<path d="M983.93 0H992.429V9.75H983.93V0ZM983.93 19.5H992.429V29.25H983.93V19.5ZM983.93 39H992.429V48.75H983.93V39ZM983.93 58.4848H992.429V68.2348H983.93V58.4848ZM1000.93 9.75H1009.43V19.5H1000.93V9.75ZM1000.93 29.25H1009.43V39H1000.93V29.25ZM1000.93 48.7348H1009.43V58.4848H1000.93V48.7348ZM1000.93 68.2348H1009.43V77.9848H1000.93V68.2348ZM1017.93 0H1026.43V9.75H1017.93V0ZM1017.93 19.5H1026.43V29.25H1017.93V19.5ZM1017.93 39H1026.43V48.75H1017.93V39ZM1017.93 58.4848H1026.43V68.2348H1017.93V58.4848ZM1034.92 9.75H1043.42V19.5H1034.92V9.75ZM1034.92 29.25H1043.42V39H1034.92V29.25ZM1034.92 48.7348H1043.42V58.4848H1034.92V48.7348ZM1034.92 68.2348H1043.42V77.9848H1034.92V68.2348Z" fill="url(#paint14_linear_2_6136)"/>
<path d="M1051.91 0H1119.89V77.9848H1051.91V0Z" fill="url(#paint15_linear_2_6136)"/>
<path d="M1152.53 58.4848H1161.02V48.7348H1169.52V38.9848H1178.02V29.2348H1186.52V19.4848H1195.02V9.73484H1203.52V0H1212.02V9.75H1220.52V19.5H1212.02V9.75H1203.52V19.5H1212.02V29.25H1220.52V39H1212.02V29.25H1203.52V19.5H1195.02V29.25H1203.52V39H1212.02V48.75H1220.52V58.5H1212.02V48.75H1203.52V39H1195.02V29.25H1186.52V39H1195.02V48.75H1203.52V58.5H1212.02V68.25H1220.52V78H1212.02V68.25H1203.52V58.5H1195.02V48.75H1186.52V39H1178.02V48.75H1186.52V58.5H1195.02V68.25H1203.52V78H1195.02V68.25H1186.52V58.5H1178.02V48.75H1169.52V58.5H1178.02V68.25H1186.52V78H1178.02V68.25H1169.52V58.5H1161.02V68.25H1169.52V78H1161.02V68.25H1152.53V58.4848ZM1152.53 39H1161.02V29.25H1169.52V19.5H1178.02V9.75H1186.52V0H1195.02V9.75H1186.52V19.5H1178.02V29.25H1169.52V39H1161.02V48.75H1152.53V39ZM1152.53 19.5H1161.02V9.75H1169.52V0H1178.02V9.75H1169.52V19.5H1161.02V29.25H1152.53V19.5ZM1152.53 0H1161.02V9.75H1152.53V0Z" fill="url(#paint16_linear_2_6136)"/>
<path d="M1220.52 0H1229.02V9.75H1220.52V0ZM1220.52 19.5H1229.02V29.25H1220.52V19.5ZM1220.52 39H1229.02V48.75H1220.52V39ZM1220.52 58.4848H1229.02V68.2348H1220.52V58.4848ZM1237.5 9.75H1246V19.5H1237.5V9.75ZM1237.5 29.25H1246V39H1237.5V29.25ZM1237.5 48.7348H1246V58.4848H1237.5V48.7348ZM1237.5 68.2348H1246V77.9848H1237.5V68.2348ZM1254.5 0H1263V9.75H1254.5V0ZM1254.5 19.5H1263V29.25H1254.5V19.5ZM1254.5 39H1263V48.75H1254.5V39ZM1254.5 58.4848H1263V68.2348H1254.5V58.4848ZM1271.5 9.75H1280V19.5H1271.5V9.75ZM1271.5 29.25H1280V39H1271.5V29.25ZM1271.5 48.7348H1280V58.4848H1271.5V48.7348ZM1271.5 68.2348H1280V77.9848H1271.5V68.2348Z" fill="url(#paint17_linear_2_6136)"/>
<defs>
<linearGradient id="paint0_linear_2_6136" x1="0" y1="39" x2="1280" y2="39" gradientUnits="userSpaceOnUse">
<stop offset="0.225962" stop-color="#0F0F0F"/>
<stop offset="1" stop-color="#828282"/>
</linearGradient>
<linearGradient id="paint1_linear_2_6136" x1="0" y1="39" x2="1280" y2="39" gradientUnits="userSpaceOnUse">
<stop offset="0.225962" stop-color="#0F0F0F"/>
<stop offset="1" stop-color="#828282"/>
</linearGradient>
<linearGradient id="paint2_linear_2_6136" x1="0" y1="39" x2="1280" y2="39" gradientUnits="userSpaceOnUse">
<stop offset="0.225962" stop-color="#0F0F0F"/>
<stop offset="1" stop-color="#828282"/>
</linearGradient>
<linearGradient id="paint3_linear_2_6136" x1="0" y1="39" x2="1280" y2="39" gradientUnits="userSpaceOnUse">
<stop offset="0.225962" stop-color="#0F0F0F"/>
<stop offset="1" stop-color="#828282"/>
</linearGradient>
<linearGradient id="paint4_linear_2_6136" x1="0" y1="39" x2="1280" y2="39" gradientUnits="userSpaceOnUse">
<stop offset="0.225962" stop-color="#0F0F0F"/>
<stop offset="1" stop-color="#828282"/>
</linearGradient>
<linearGradient id="paint5_linear_2_6136" x1="0" y1="39" x2="1280" y2="39" gradientUnits="userSpaceOnUse">
<stop offset="0.225962" stop-color="#0F0F0F"/>
<stop offset="1" stop-color="#828282"/>
</linearGradient>
<linearGradient id="paint6_linear_2_6136" x1="0" y1="39" x2="1280" y2="39" gradientUnits="userSpaceOnUse">
<stop offset="0.225962" stop-color="#0F0F0F"/>
<stop offset="1" stop-color="#828282"/>
</linearGradient>
<linearGradient id="paint7_linear_2_6136" x1="0" y1="39" x2="1280" y2="39" gradientUnits="userSpaceOnUse">
<stop offset="0.225962" stop-color="#0F0F0F"/>
<stop offset="1" stop-color="#828282"/>
</linearGradient>
<linearGradient id="paint8_linear_2_6136" x1="0" y1="39" x2="1280" y2="39" gradientUnits="userSpaceOnUse">
<stop offset="0.225962" stop-color="#0F0F0F"/>
<stop offset="1" stop-color="#828282"/>
</linearGradient>
<linearGradient id="paint9_linear_2_6136" x1="0" y1="39" x2="1280" y2="39" gradientUnits="userSpaceOnUse">
<stop offset="0.225962" stop-color="#0F0F0F"/>
<stop offset="1" stop-color="#828282"/>
</linearGradient>
<linearGradient id="paint10_linear_2_6136" x1="0" y1="39" x2="1280" y2="39" gradientUnits="userSpaceOnUse">
<stop offset="0.225962" stop-color="#0F0F0F"/>
<stop offset="1" stop-color="#828282"/>
</linearGradient>
<linearGradient id="paint11_linear_2_6136" x1="0" y1="39" x2="1280" y2="39" gradientUnits="userSpaceOnUse">
<stop offset="0.225962" stop-color="#0F0F0F"/>
<stop offset="1" stop-color="#828282"/>
</linearGradient>
<linearGradient id="paint12_linear_2_6136" x1="0" y1="39" x2="1280" y2="39" gradientUnits="userSpaceOnUse">
<stop offset="0.225962" stop-color="#0F0F0F"/>
<stop offset="1" stop-color="#828282"/>
</linearGradient>
<linearGradient id="paint13_linear_2_6136" x1="0" y1="39" x2="1280" y2="39" gradientUnits="userSpaceOnUse">
<stop offset="0.225962" stop-color="#0F0F0F"/>
<stop offset="1" stop-color="#828282"/>
</linearGradient>
<linearGradient id="paint14_linear_2_6136" x1="0" y1="39" x2="1280" y2="39" gradientUnits="userSpaceOnUse">
<stop offset="0.225962" stop-color="#0F0F0F"/>
<stop offset="1" stop-color="#828282"/>
</linearGradient>
<linearGradient id="paint15_linear_2_6136" x1="0" y1="39" x2="1280" y2="39" gradientUnits="userSpaceOnUse">
<stop offset="0.225962" stop-color="#0F0F0F"/>
<stop offset="1" stop-color="#828282"/>
</linearGradient>
<linearGradient id="paint16_linear_2_6136" x1="0" y1="39" x2="1280" y2="39" gradientUnits="userSpaceOnUse">
<stop offset="0.225962" stop-color="#0F0F0F"/>
<stop offset="1" stop-color="#828282"/>
</linearGradient>
<linearGradient id="paint17_linear_2_6136" x1="0" y1="39" x2="1280" y2="39" gradientUnits="userSpaceOnUse">
<stop offset="0.225962" stop-color="#0F0F0F"/>
<stop offset="1" stop-color="#828282"/>
</linearGradient>
</defs>
</svg>
